<svg width="23" height="24" viewBox="0 0 23 24" fill="none" xmlns="http://www.w3.org/2000/svg">
<path d="M21.9844 10.8828C21.4336 10.8828 20.9844 10.4336 20.9844 9.88281C20.9844 7.07812 19.8906 4.44141 17.9102 2.45703C17.5195 2.06641 17.5195 1.43359 17.9102 1.04297C18.3008 0.652344 18.9336 0.652344 19.3242 1.04297C21.6836 3.40234 22.9844 6.54297 22.9844 9.88281C22.9844 10.4336 22.5352 10.8828 21.9844 10.8828Z" fill="#A7DCFE"/>
<path d="M1.98438 10.8828C1.43359 10.8828 0.984375 10.4336 0.984375 9.88281C0.984375 6.54297 2.28516 3.40234 4.64453 1.04297C5.03516 0.652344 5.66797 0.652344 6.05859 1.04297C6.44922 1.43359 6.44922 2.06641 6.05859 2.45703C4.07813 4.44141 2.98438 7.07812 2.98438 9.88281C2.98438 10.4336 2.53516 10.8828 1.98438 10.8828Z" fill="#A7DCFE"/>
<path d="M21.3633 16.9141C19.8516 15.6367 18.9844 13.7656 18.9844 11.7891V9C18.9844 5.48047 16.3711 2.56641 12.9844 2.07812V1C12.9844 0.445312 12.5352 0 11.9844 0C11.4336 0 10.9844 0.445312 10.9844 1V2.07812C7.59766 2.56641 4.98438 5.48047 4.98438 9V11.7891C4.98438 13.7656 4.11719 15.6367 2.59766 16.9219C2.20703 17.2539 1.98438 17.7383 1.98438 18.25C1.98438 19.2148 2.76953 20 3.73438 20H20.2344C21.1992 20 21.9844 19.2148 21.9844 18.25C21.9844 17.7383 21.7617 17.2539 21.3633 16.9141Z" fill="#A7DCFE"/>
<path d="M11.9844 24C13.7969 24 15.3086 22.707 15.6602 21H8.30859C8.66016 22.707 10.1719 24 11.9844 24Z" fill="#A7DCFE"/>
</svg>
